<?xml version="1.0" encoding="utf-8"?>
<!DOCTYPE svg PUBLIC "-//W3C//DTD SVG 1.1//EN" "http://www.w3.org/Graphics/SVG/1.1/DTD/svg11.dtd">
<svg version="1.1" xmlns="http://www.w3.org/2000/svg" x="0px" y="0px"
     viewBox="0 0 1000 1000" enable-background="new 0 0 1000 1000" xml:space="preserve">
<g><g fill="#CCC" transform="translate(0.000000,512.000000) scale(0.100000,-0.100000)"><path d="M4651.5,5015.8c-36.4-3.8-149.5-17.3-249.1-26.8c-601.7-65.1-1280.1-289.4-1820.5-597.9c-281.7-161-613.2-396.7-655.4-465.7c-70.9-116.9-26.8-268.3,95.8-327.7c95.8-46,166.7-23,350.7,113.1c569.2,419.7,1247.6,697.6,1971.9,812.5c306.6,47.9,996.5,47.9,1293.5-1.9c709.1-115,1303.1-348.8,1868.5-735.9c243.4-166.7,335.4-243.4,580.7-482.9C8810,2603.1,9229.7,1786.7,9396.4,763.4c49.8-297,49.8-985,1.9-1293.5c-115-724.4-394.8-1404.7-810.6-1966.2c-132.2-180.1-153.3-233.8-122.7-322c46-141.8,195.5-203.1,325.8-136.1c109.2,55.6,408.2,513.6,624.7,954.3c668.8,1364.5,643.9,2995.3-67.1,4373.1c-243.4,471.4-496.3,814.5-900.7,1216.9c-753.1,753.1-1684.5,1224.6-2727,1381.7C5477.4,5008.1,4818.2,5034.9,4651.5,5015.8z"/><path
  d="M3530.4,3227.8c-373.7-61.3-695.6-270.2-881.5-574.9c-216.5-358.4-235.7-803-49.8-1180.5c208.9-421.6,622.8-680.3,1094.2-680.3c469.5,0,887.3,258.7,1094.2,680.3c99.6,201.2,139.9,392.9,126.5,605.6c-38.3,628.6-521.3,1111.5-1153.7,1155.6C3687.5,3237.4,3584.1,3235.5,3530.4,3227.8z M3959.7,2729.6c201.2-76.7,341.1-210.8,436.9-417.8c46-95.8,53.7-134.2,53.7-293.2c-1.9-145.6-9.6-205-46-293.2c-61.3-155.2-220.4-321.9-381.4-400.5c-118.8-59.4-139.9-63.2-329.6-63.2c-189.7,0-210.8,3.8-329.6,63.2c-161,78.6-320,245.3-381.4,400.5c-36.4,88.2-44.1,149.5-46,293.2c0,164.8,5.7,193.6,61.3,310.5c103.5,220.4,312.4,389,542.3,436.9C3655,2789,3848.5,2773.6,3959.7,2729.6z" /><path
  d="M1200.1,3197.1c-99.6-53.7-394.8-498.3-590.2-883.4c-245.3-490.6-390.9-956.3-473.3-1531.2C84.8,433.8,88.6-242.7,144.2-597.2c82.4-523.2,218.5-958.2,454.2-1437.3c251-511.7,515.5-881.5,929.4-1295.4c402.4-404.4,745.5-657.3,1216.9-900.7c1372.1-707.1,2985.7-735.9,4352-76.7c442.7,214.6,917.9,523.2,975.4,634.3c63.2,122.7,1.9,277.9-128.4,320c-95.8,32.6-155.2,11.5-327.7-116.9c-563.4-415.8-1243.7-695.6-1968.1-810.6c-308.5-47.9-996.5-47.9-1293.5,1.9c-711,115-1276.3,335.4-1839.7,716.7c-266.4,180.1-352.6,251.1-609.4,502.1C1184.8-2362.2,761.3-1536.3,596.5-520.6c-49.8,297-49.8,986.9-1.9,1293.5c115,724.4,392.9,1402.8,812.5,1971.9c107.3,143.7,120.7,174.4,120.7,251c0,99.7-34.5,159.1-115,201.2C1343.8,3233.6,1265.3,3233.6,1200.1,3197.1z" /><path
  d="M5782.1,2459.3c-203.1-38.3-350.7-120.7-496.3-277.9c-335.4-364.1-253-983.1,170.5-1255.2C5807,700.1,6297.6,771,6554.4,1083.4c325.8,396.7,247.2,956.3-172.5,1245.6C6222.9,2438.3,5966.1,2493.8,5782.1,2459.3z M6017.8,1997.5c149.5-40.3,279.8-212.7,281.7-367.9c1.9-410.1-578.8-523.2-737.8-143.7c-82.4,201.2,38.3,448.4,251.1,513.6C5889.5,2022.4,5933.5,2022.4,6017.8,1997.5z" /><path
  d="M2547.3,426.1c-145.6-72.8-138,0-138-1410.4c0-1429.6-9.6-1339.5,157.1-1421.9l84.3-40.3h1960.4c1366.4,0,1970,5.8,1998.8,21.1c74.7,40.2,92,130.3,92,467.6c0,174.4,3.8,316.2,5.7,316.2c3.8,0,256.8-107.3,559.6-239.6c371.8-161,574.9-239.5,620.9-239.5c74.7,0,138,40.3,172.5,109.2c32.6,63.2,28.8,2010.3-3.8,2075.4c-13.4,26.8-55.6,63.2-97.8,84.3c-93.9,46-88.1,47.9-730.1-233.8l-517.4-228.1l-9.6,343l-9.6,345l-53.7,46l-53.7,46H4607.4C2629.7,466.3,2629.7,466.3,2547.3,426.1z M6242.1-990.1v-996.5H4555.7H2869.3v996.5V6.4h1686.4h1686.4V-990.1z M7621.8-980.5v-563.4l-214.6,95.8c-118.8,53.7-327.7,145.6-461.8,205l-245.3,107.3l5.7,161l5.7,161l440.8,197.4c243.4,109.2,446.5,197.4,456.1,199.3C7616.1-415.2,7621.8-670.1,7621.8-980.5z" /><path
  d="M3622.4-453.5c-32.6-19.2-70.9-53.7-80.5-74.7c-30.7-55.6-24.9-197.4,9.6-247.2c69-99.6,72.8-99.6,1032.9-99.6c965.9,0,963.9,0,1032.9,103.5c38.3,61.3,40.2,201.2,0,256.8c-69,99.6-72.8,99.6-1036.8,99.6C3725.9-415.2,3679.9-417.1,3622.4-453.5z" /></g></g>
</svg>
